# xmcd
#
# Track frame offsets: 
#        150
#        21472
#        34172
#        52121
#        66496
#        79886
#        99872
#        113703
#        130653
#        142364
#        156050
#
# Disc length: 2302 seconds
#
# Revision: 5
# Processed by: cddbd v1.5.2PL0 Copyright (c) Steve Scherf et al.
# Submitted via: ExactAudioCopyFreeDBPlugin 1.0
#
DISCID=9c08fc0b
DTITLE=George Jones - It Don't Get Any Better Than This
DYEAR=1998
DGENRE=Country
TTITLE0=Wild Irish Rose
TTITLE1=Small Y'All
TTITLE2=Over You
TTITLE3=It Don't Get Any Better Than This
TTITLE4=Smack Dab
TTITLE5=Don't Touch Me
TTITLE6=Got To Get To Louisiana
TTITLE7=When Did You Stop Lovin' Me
TTITLE8=I Said All That To Say All This
TTITLE9=No Future For Me In Our Past
TTITLE10=I Can Live Forever
EXTD=
EXTT0=
EXTT1=
EXTT2=
EXTT3=
EXTT4=
EXTT5=
EXTT6=
EXTT7=
EXTT8=
EXTT9=
EXTT10=
PLAYORDER=
